<?xml version="1.0" encoding="UTF-8"?>
<svg width="25px" height="25px" viewBox="0 0 25 25" version="1.1" xmlns="http://www.w3.org/2000/svg" xmlns:xlink="http://www.w3.org/1999/xlink">
    <!-- Generator: Sketch 42 (36781) - http://www.bohemiancoding.com/sketch -->
    <title>dribble_icon</title>
    <desc>Created with Sketch.</desc>
    <defs></defs>
    <g id="Welcome" stroke="none" stroke-width="1" fill="none" fill-rule="evenodd">
        <g id="Desktop-HD" transform="translate(-1337.000000, -28.000000)" fill="#C32361">
            <g id="dribble_icon" transform="translate(1337.000000, 28.000000)">
                <path d="M18.4918296,21.3690228 C18.3822728,20.7194577 17.8130843,17.5936823 16.4147065,13.7557879 C19.7651869,13.2203226 22.7088918,14.0970389 23.0746053,14.2123618 C22.5981119,17.1833249 20.8905464,19.7492599 18.4918296,21.3690228 M12.5178402,23.1952311 C10.0460856,23.1952311 7.76775893,22.352937 5.95483019,20.9411922 C6.14729715,20.548308 8.31213554,16.3716962 14.3429128,14.2729937 C14.3663268,14.2648687 14.3899156,14.2572679 14.4133297,14.2492302 C15.9145371,18.1448734 16.5352714,21.4098226 16.6943646,22.3465593 C15.4105235,22.8926832 13.9988661,23.1952311 12.5178402,23.1952311 M1.82565803,12.517377 C1.82565803,12.4081697 1.82784218,12.2994865 1.83116208,12.1911529 C2.29891884,12.2006758 7.48023792,12.2673359 12.8197766,10.6715113 C13.1259065,11.2697053 13.4182326,11.8769853 13.6866205,12.4835664 C13.5451752,12.5234052 13.4046036,12.5656029 13.2653424,12.6106837 C7.75098469,14.3906755 4.81654053,19.2428874 4.57436239,19.6568268 C2.86662213,17.763871 1.82565803,15.259791 1.82565803,12.517377 M7.97210766,2.85410242 C8.25394989,3.24017211 10.164641,5.88438692 11.9362457,9.02947015 C6.93481292,10.3557711 2.52973941,10.3367254 2.05149875,10.330435 C2.74483413,7.0169978 4.98078833,4.26313885 7.97210766,2.85410242 M12.5178402,1.83952281 C15.2345686,1.83952281 17.7174187,2.85724759 19.6054821,4.53021625 C19.4132772,4.80367136 17.8037362,6.96414146 14.0016618,8.38733115 C12.249627,5.17252998 10.3077463,2.53154771 10.0121876,2.1363046 C10.8162155,1.94287661 11.6551024,1.83952281 12.5178402,1.83952281 M20.7941819,5.7649578 C22.2832454,7.58199275 23.1851231,9.89622674 23.2086245,12.4164694 C22.8561033,12.3420337 19.3211936,11.6259832 15.7634815,12.0727722 C15.6885216,11.8899154 15.6118144,11.7062724 15.5331851,11.5217557 C15.3111011,11.0010553 15.072505,10.4836747 14.8238618,9.9751181 C18.7770791,8.36321818 20.568778,6.06942779 20.7941819,5.7649578 M12.5000176,3.48432056e-05 C5.59645547,3.48432056e-05 -2.61324042e-05,5.59642908 -2.61324042e-05,12.4999038 C-2.61324042e-05,19.4035532 5.59645547,24.9999475 12.5000176,24.9999475 C19.4034923,24.9999475 24.9999739,19.4035532 24.9999739,12.4999038 C24.9999739,5.59642908 19.4034923,3.48432056e-05 12.5000176,3.48432056e-05" id="Fill-1"></path>
            </g>
        </g>
    </g>
</svg>