<svg width="25" height="25" viewBox="0 0 25 25" fill="none" xmlns="http://www.w3.org/2000/svg">
<path fill-rule="evenodd" clip-rule="evenodd" d="M18.4919 21.369C18.3823 20.7195 17.8131 17.5937 16.4147 13.7558C19.7652 13.2203 22.7089 14.097 23.0746 14.2124C22.5981 17.1833 20.8906 19.7493 18.4919 21.369ZM12.5179 23.1952C10.0461 23.1952 7.76779 22.3529 5.95486 20.9412C6.14732 20.5483 8.31216 16.3717 14.3429 14.273C14.3664 14.2649 14.3899 14.2573 14.4134 14.2492C15.9146 18.1449 16.5353 21.4098 16.6944 22.3466C15.4106 22.8927 13.9989 23.1952 12.5179 23.1952ZM1.82568 12.5174C1.82568 12.4082 1.82787 12.2995 1.83119 12.1912C2.29894 12.2007 7.48026 12.2673 12.8198 10.6715C13.1259 11.2697 13.4183 11.877 13.6866 12.4836C13.5452 12.5234 13.4046 12.5656 13.2654 12.6107C7.75101 14.3907 4.81657 19.2429 4.57439 19.6568C2.86665 17.7639 1.82568 15.2598 1.82568 12.5174ZM7.97213 2.85411C8.25398 3.24018 10.1647 5.88439 11.9363 9.02947C6.93484 10.3558 2.52977 10.3367 2.05152 10.3304C2.74486 7.017 4.98081 4.26314 7.97213 2.85411ZM12.5179 1.83953C15.2346 1.83953 17.7174 2.85725 19.6055 4.53022C19.4133 4.80367 17.8038 6.96414 14.0017 8.38733C12.2497 5.17253 10.3078 2.53155 10.0122 2.13631C10.8162 1.94288 11.6551 1.83953 12.5179 1.83953ZM20.7942 5.76496C22.2833 7.582 23.1851 9.89623 23.2087 12.4165C22.8561 12.342 19.3212 11.626 15.7635 12.0728C15.6885 11.8899 15.6118 11.7063 15.5332 11.5218C15.3111 11.0011 15.0725 10.4837 14.8239 9.97512C18.7771 8.36322 20.5688 6.06943 20.7942 5.76496ZM12.5 3.8147e-05C5.59648 3.8147e-05 0 5.59643 0 12.4999C0 19.4036 5.59648 25 12.5 25C19.4035 25 25 19.4036 25 12.4999C25 5.59643 19.4035 3.8147e-05 12.5 3.8147e-05Z" fill="#C32361"/>
</svg>
