<svg width="25" height="25" viewBox="0 0 25 25" xmlns="http://www.w3.org/2000/svg"><title>@</title><path d="M13.426.61C5.85.61.229 6.301.229 13.99c0 6.118 4.687 10.408 11.328 10.408 1.09 0 2.124-.113 3.03-.297l.425-2.01c-.58.17-1.586.283-2.733.283-5.947.014-9.884-3.413-9.884-8.61 0-6.216 4.786-11.144 10.833-11.144 5.026 0 8.623 3.115 8.623 7.463 0 3.625-1.883 7.009-3.894 7.009-.935 0-1.416-.425-1.416-1.232 0-.1.014-.227.057-.482l1.812-8.255h-2.478l-.368 1.77-.24-.014c-.298-1.317-1.742-2.294-3.4-2.294-3.228 0-5.748 3.13-5.748 7.108 0 2.875 1.713 4.758 4.347 4.758 1.487 0 2.676-.665 3.413-1.982l.24-.014c0 .085-.014.198-.014.283 0 1.387 1.345 2.379 3.2 2.379 3.753 0 6.67-3.98 6.67-9.134C24.032 4.588 19.5.61 13.426.61zm1.33 11.13c0 2.463-1.585 4.46-3.54 4.46-1.472 0-2.42-1.034-2.42-2.662 0-2.578 1.529-4.63 3.44-4.63 1.515 0 2.52 1.118 2.52 2.831z" fill="#FFF" fill-rule="evenodd"/></svg>