<?xml version="1.0" encoding="UTF-8"?>
<svg width="25px" height="25px" viewBox="0 0 25 25" version="1.1" xmlns="http://www.w3.org/2000/svg" xmlns:xlink="http://www.w3.org/1999/xlink">
    <!-- Generator: Sketch 42 (36781) - http://www.bohemiancoding.com/sketch -->
    <title>Page 1email</title>
    <desc>Created with Sketch.</desc>
    <defs></defs>
    <g id="Welcome" stroke="none" stroke-width="1" fill="none" fill-rule="evenodd">
        <g id="Desktop-HD" transform="translate(-1237.000000, -28.000000)" fill="#FFFFFF">
            <g id="Page-1" transform="translate(1237.000000, 28.000000)">
                <path d="M14.4811655,15.2674389 C13.9465702,15.9907459 13.2179339,16.3523557 12.2956062,16.3523557 C11.3728416,16.3523557 10.6446422,15.9750199 10.1101342,15.2202611 C9.57553879,14.4655896 9.30819742,13.5801305 9.30819742,12.5630102 C9.30819742,11.5465014 9.57553879,10.6919701 10.1101342,10.0002024 C10.6446422,9.30834742 11.3625324,8.9624636 12.2641542,8.9624636 C13.1652519,8.9624636 13.8939756,9.30834742 14.4497136,10.0002024 C15.0049275,10.6919701 15.2830149,11.56214 15.2830149,12.6101881 C15.2830149,13.6587603 15.0157609,14.5442194 14.4811655,15.2674389 M25,12.5001063 C25,12.4641987 24.9989516,12.4284658 24.9986895,12.3926456 C24.941115,5.57168391 19.4211273,0.0545793048 12.5992046,0.00137313045 C12.5661801,0.00111103106 12.5332429,0.00015 12.5000437,0.00015 C5.59643335,0.00015 0,5.59658335 0,12.5001063 C0,12.5356645 0.00104839752,12.5710479 0.00131049691,12.6065187 C0.058448162,19.4315865 5.58437678,24.951749 12.4118036,24.9991016 C13.5398793,24.9883555 14.7379356,24.7635616 16.0063218,24.324021 C17.3058979,23.8729479 18.3750887,23.2808654 19.2138067,22.5472493 L18.5093709,21.3273514 C16.7974251,22.4950041 14.7285874,23.1781225 12.4999563,23.1781225 C6.60272024,23.1781225 1.8221149,18.3974298 1.8221149,12.5001937 C1.8221149,6.60287024 6.60272024,1.82217753 12.4999563,1.82217753 C14.2873867,1.82217753 15.9718121,2.26206766 17.452062,3.03831866 C20.8556846,4.82339018 23.1779725,8.39030065 23.1779725,12.5001937 C23.1779725,13.7568728 22.9601679,14.9626174 22.5614274,16.0824807 C22.1344675,16.9661924 21.6411964,17.4085288 21.0807406,17.4085288 C20.4517894,17.4085288 19.1824421,16.8348806 19.1824421,15.7863084 L19.1824421,5.75489138 L15.251563,5.75489138 L15.251563,7.04415823 L14.8427753,6.63537057 C14.5912473,6.36322404 14.1716262,6.08504923 13.5849604,5.80206927 C12.9977704,5.5190893 12.3791285,5.37755564 11.7295589,5.37755564 C9.80050742,5.37755564 8.2438992,6.08504923 7.05982156,7.50021116 C5.87513236,8.91528572 5.28304986,10.6556256 5.28304986,12.7202698 C5.28304986,14.7854382 5.93803621,16.4889094 7.24844575,17.8303341 C8.55841846,19.1721955 10.0993007,19.8429078 11.8710925,19.8429078 C13.6423602,19.8429078 15.1047,19.0989824 16.2578499,17.6101706 C16.5094653,18.3443109 16.9654308,18.952032 17.6257465,19.4341202 C18.2861496,19.9165578 19.0143491,20.1573397 19.8113059,20.1573397 C19.856387,20.1573397 19.9004197,20.1547187 19.945064,20.153583 C21.4342253,20.1141807 22.6426782,19.4200542 23.5691121,18.0662235 C23.7946923,17.7365899 23.9926647,17.3804842 24.1647766,16.9999159 C24.6881017,15.8432713 24.9651408,14.4510867 24.9959811,12.8233622 C24.9961559,12.8108688 24.9962432,12.798288 24.996418,12.7857946 C24.9979032,12.6961567 24.9999126,12.6069555 24.9999126,12.5159196 L24.9999126,12.5109398 C24.9999126,12.5073577 25,12.5037757 25,12.5001063" id="Fill-1"></path>
            </g>
        </g>
    </g>
</svg>