<svg xmlns="http://www.w3.org/2000/svg" width="25" height="25" viewBox="0 0 25 25">
  <path fill="#FFF" fill-rule="evenodd" d="M0.5,2.557066 C0.5,2.16042878 0.728,1.82965383 0.996,1.82965383 L10.484,1.82965383 L10.484,2.10042093 C10.45,2.65220039 10.226,3.01956548 9.346,3.09860021 L0.996,3.09860021 C0.813,3.09860021 0.649,3.1951982 0.5,3.32545913 L0.5,2.557066 Z M10.984,2.10042093 L10.984,1.82965383 L10.984,1.46667955 C10.984,1.32910058 11.018,1.20762129 11.062,1.09785084 C11.149,0.882700763 11.302,0.731949348 11.481,0.731949348 L24.002,0.731949348 C24.233,0.731949348 24.423,0.979298757 24.477,1.29836486 C24.486,1.35398189 24.5,1.4066717 24.5,1.46667955 L24.5,2.557066 L24.5,23.4676045 C24.5,23.6651914 24.447,23.8496057 24.354,23.9886483 C24.258,24.1247636 24.133,24.2023347 24.004,24.2023347 L0.996,24.2023347 C0.722,24.2023347 0.5,23.8759506 0.5,23.4676045 L0.5,4.56513339 C0.5,4.16410536 0.729,3.83040319 0.996,3.83040319 C0.996,3.83040319 9.42,3.82162156 9.402,3.82308516 C10.401,3.73819602 10.918,3.21129787 10.984,2.10042093 L10.984,2.10042093 Z M24.002,0.000146360597 L11.481,0.000146360597 C11.022,0.000146360597 10.649,0.471427484 10.535,1.09785084 L0.996,1.09785084 C0.455,1.09785084 0,1.75061911 0,2.557066 L0,4.56513339 L0,23.4676045 L0,23.5407848 C0,24.3355229 0.445,25 0.996,25 L24.004,25 C24.545,25 25,24.3472317 25,23.5407848 L25,23.4676045 L25,2.557066 L25,1.46667955 C25,0.667550685 24.553,0.000146360597 24.002,0.000146360597 L24.002,0.000146360597 Z"/>
</svg>
