<svg xmlns="http://www.w3.org/2000/svg" xmlns:xlink="http://www.w3.org/1999/xlink" width="25" height="18" viewBox="0 0 25 18">
  <defs>
    <path id="folder-logo-a" d="M10.483871,1.43583591 L10.483871,1.00209484 C10.483871,0.448653142 10.9342277,0 11.4816233,0 L24.0022477,0 C24.5532911,0 25,0.455679612 25,1.00209484 L25,16.0341955 C25,16.3105341 24.8877216,16.560748 24.7071468,16.7420317 C24.5235048,16.9241299 24.2746403,17.0362903 24.004543,17.0362903 L0.995457033,17.0362903 C0.445681294,17.0362903 0,16.5897837 0,16.0342229 L0,3.11900288 C0,2.56557634 0.455262884,2.11693548 0.995457033,2.11693548 L9.34528163,2.11693548 C9.35440054,2.11519893 9.36363759,2.11405051 9.37299421,2.11350226 C10.2257168,2.06353699 10.4502424,1.81207992 10.483871,1.43583591 Z"/>
  </defs>
  <g fill="none" fill-rule="evenodd">
    <rect width="24.5" height="15.831" x=".25" y="1.25" stroke="#979797" stroke-width=".5" rx="1"/>
    <use fill="#FFF" xlink:href="#folder-logo-a"/>
    <path stroke="#979797" stroke-width=".5" d="M10.733871,1.43583591 L10.733871,1.00209484 C10.733871,0.587884684 11.071141,0.25 11.4816233,0.25 L24.0022477,0.25 C24.4122993,0.25 24.75,0.59081323 24.75,1.00209484 L24.75,16.0341955 C24.75,16.2359841 24.6700668,16.4250092 24.5300241,16.5656017 C24.3883002,16.7061274 24.2006307,16.7862903 24.004543,16.7862903 L0.995457033,16.7862903 C0.583308003,16.7862903 0.25,16.4512626 0.25,16.0342229 L0.25,3.11900288 C0.25,2.70695716 0.590024411,2.36693548 0.995457033,2.36693548 L9.34528163,2.36693548 C9.38980536,2.36289827 9.38980536,2.36289827 9.38761787,2.36307419 C10.2761782,2.31100901 10.6818738,2.02874101 10.7328783,1.45809214 L10.733871,1.43583591 Z"/>
  </g>
</svg>
