<svg width="26" height="26" viewBox="0 0 26 26" fill="none" xmlns="http://www.w3.org/2000/svg">
<mask id="mask0_105:21" style="mask-type:alpha" maskUnits="userSpaceOnUse" x="0" y="0" width="25" height="25">
<path d="M0 25V0H25V25H0Z" fill="white"/>
</mask>
<g mask="url(#mask0_105:21)">
<path fill-rule="evenodd" clip-rule="evenodd" d="M12.4993 0C5.59674 0 -0.000488281 5.73875 -0.000488281 12.8174C-0.000488281 18.479 3.58085 23.2831 8.54883 24.9778C9.17424 25.0951 9.40215 24.7001 9.40215 24.3602C9.40215 24.0557 9.39141 23.2501 9.38527 22.18C5.9083 22.955 5.17469 20.4625 5.17469 20.4625C4.60606 18.9818 3.78651 18.5876 3.78651 18.5876C2.65156 17.7922 3.87245 17.8087 3.87245 17.8087C5.12711 17.8992 5.78705 19.1289 5.78705 19.1289C6.90205 21.088 8.71228 20.5223 9.42517 20.1942C9.53874 19.3657 9.86104 18.8008 10.2186 18.4806C7.44304 18.1572 4.52472 17.0581 4.52472 12.1463C4.52472 10.7474 5.012 9.6034 5.81161 8.70726C5.68269 8.38311 5.25373 7.08021 5.93362 5.31625C5.93362 5.31625 6.98339 4.97086 9.37146 6.63017C10.3683 6.34536 11.438 6.20295 12.5008 6.19823C13.5621 6.20295 14.6318 6.34536 15.6302 6.63017C18.0167 4.97086 19.0642 5.31625 19.0642 5.31625C19.7464 7.08021 19.3174 8.38311 19.1885 8.70726C19.9896 9.6034 20.4738 10.7474 20.4738 12.1463C20.4738 17.0699 17.5509 18.1533 14.7661 18.4712C15.215 18.8661 15.6148 19.649 15.6148 20.8441C15.6148 22.5577 15.5995 23.9401 15.5995 24.3602C15.5995 24.7024 15.8243 25.1013 16.4589 24.9762C21.4215 23.2784 25.0006 18.4775 25.0006 12.8174C25.0006 5.73875 19.4033 0 12.4993 0Z" fill="#FEFEFE"/>
</g>
</svg>
