<svg xmlns="http://www.w3.org/2000/svg" xmlns:xlink="http://www.w3.org/1999/xlink" width="26" height="26" viewBox="0 0 26 26">
  <defs>
    <polygon id="github_icon-a" points="0 25.035 0 0 25.668 0 25.668 25.035 0 25.035"/>
  </defs>
  <g fill="none" fill-rule="evenodd">
    <mask id="github_icon-b" fill="#fff">
      <use xlink:href="#github_icon-a"/>
    </mask>
    <path fill="#FEFEFE" d="M12.8334424,0 C5.74647273,0 -0.000315151515,5.74678788 -0.000315151515,12.8353333 C-0.000315151515,18.5049091 3.67671515,23.315697 8.77744242,25.0127879 C9.41956364,25.1301818 9.65356364,24.7346667 9.65356364,24.394303 C9.65356364,24.0893939 9.64253333,23.2826061 9.6362303,22.2110909 C6.06635152,22.9871515 5.31313939,20.4911515 5.31313939,20.4911515 C4.72932121,19.0083636 3.88786667,18.6136364 3.88786667,18.6136364 C2.72259394,17.8170909 3.97610909,17.8336364 3.97610909,17.8336364 C5.26429091,17.9242424 5.94186667,19.155697 5.94186667,19.155697 C7.08665455,21.1175152 8.94526061,20.5510303 9.6772,20.2224848 C9.79380606,19.3928485 10.1247152,18.8271515 10.4918667,18.5064848 C7.64210909,18.1826667 4.64580606,17.082 4.64580606,12.1632727 C4.64580606,10.7624242 5.14610909,9.61684848 5.96707879,8.71945455 C5.83471515,8.39484848 5.39429091,7.09012121 6.09235152,5.32369697 C6.09235152,5.32369697 7.1701697,4.97781818 9.62204848,6.63945455 C10.645503,6.35424242 11.7438061,6.21163636 12.8350182,6.20690909 C13.9246545,6.21163636 15.0229576,6.35424242 16.0479879,6.63945455 C18.4982909,4.97781818 19.5737455,5.32369697 19.5737455,5.32369697 C20.2741697,7.09012121 19.8337455,8.39484848 19.7013818,8.71945455 C20.5239273,9.61684848 21.0210788,10.7624242 21.0210788,12.1632727 C21.0210788,17.0938182 18.0200485,18.1787273 15.1608364,18.4970303 C15.6217455,18.8925455 16.0322303,19.6764848 16.0322303,20.8732727 C16.0322303,22.5892727 16.0164727,23.9735758 16.0164727,24.394303 C16.0164727,24.7370303 16.2473212,25.1364848 16.898897,25.0112121 C21.9941091,23.3109697 25.6687758,18.5033333 25.6687758,12.8353333 C25.6687758,5.74678788 19.9219879,0 12.8334424,0" mask="url(#github_icon-b)"/>
  </g>
</svg>
