<?xml version="1.0" encoding="UTF-8"?>
<svg width="25px" height="25px" viewBox="0 0 25 25" version="1.1" xmlns="http://www.w3.org/2000/svg" xmlns:xlink="http://www.w3.org/1999/xlink">
    <!-- Generator: Sketch 42 (36781) - http://www.bohemiancoding.com/sketch -->
    <title>info_icon</title>
    <desc>Created with Sketch.</desc>
    <defs></defs>
    <g id="Welcome" stroke="none" stroke-width="1" fill="none" fill-rule="evenodd">
        <g id="Desktop-HD" transform="translate(-1287.000000, -28.000000)" fill="#FFFFFF">
            <g id="info_icon" transform="translate(1287.000000, 28.000000)">
                <path d="M10.8297909,20.7204861 L14.0963415,20.7204861 L14.0963415,9.04513889 L10.8297909,9.04513889 L10.8297909,20.7204861 Z M11.1020035,7.55859375 C10.7317944,7.18967014 10.5466899,6.73767361 10.5466899,6.20225694 C10.5466899,5.6671875 10.7317944,5.21484375 11.1020035,4.84592014 C11.4722125,4.47699653 11.925784,4.29253472 12.4630662,4.29253472 C13,4.29253472 13.4539199,4.47699653 13.8241289,4.84592014 C14.194338,5.21484375 14.3794425,5.6671875 14.3794425,6.20225694 C14.3794425,6.73767361 14.194338,7.18967014 13.8241289,7.55859375 C13.4539199,7.92751736 13,8.11197917 12.4630662,8.11197917 C11.925784,8.11197917 11.4722125,7.92751736 11.1020035,7.55859375 L11.1020035,7.55859375 Z" id="Fill-4"></path>
                <path d="M12.4629965,23.1159288 C6.58320557,23.1159288 1.81665505,18.3659288 1.81665505,12.5065538 C1.81665505,6.64709201 6.58320557,1.89717882 12.4629965,1.89717882 C18.3428746,1.89717882 23.1094251,6.64709201 23.1094251,12.5065538 C23.1094251,18.3659288 18.3428746,23.1159288 12.4629965,23.1159288 M12.4630836,0.0867621528 C5.57980836,0.0867621528 1.74216029e-05,5.64726563 1.74216029e-05,12.506467 C1.74216029e-05,19.3657552 5.57980836,24.9262587 12.4630836,24.9262587 C19.3462718,24.9262587 24.9260627,19.3657552 24.9260627,12.506467 C24.9260627,5.64726563 19.3462718,0.0867621528 12.4630836,0.0867621528" id="Fill-1"></path>
            </g>
        </g>
    </g>
</svg>