<?xml version="1.0" encoding="UTF-8"?>
<svg width="27px" height="27px" viewBox="0 0 27 27" version="1.1" xmlns="http://www.w3.org/2000/svg" xmlns:xlink="http://www.w3.org/1999/xlink">
    <!-- Generator: Sketch 42 (36781) - http://www.bohemiancoding.com/sketch -->
    <title>linkedIn-icon</title>
    <desc>Created with Sketch.</desc>
    <defs></defs>
    <g id="Welcome" stroke="none" stroke-width="1" fill="none" fill-rule="evenodd">
        <g id="Desktop-HD" transform="translate(-1286.000000, -27.000000)">
            <g id="linkedIn-icon" transform="translate(1287.000000, 28.000000)">
                <path d="M22.9901897,0 L1.83260345,0 C0.821568966,0 1.72413793e-05,0.80137931 1.72413793e-05,1.78948276 L1.72413793e-05,23.0360345 C1.72413793e-05,24.025 0.821568966,24.8275862 1.83260345,24.8275862 L22.9901897,24.8275862 C24.0029483,24.8275862 24.8279483,24.025 24.8279483,23.0360345 L24.8279483,1.78948276 C24.8279483,0.80137931 24.0029483,0 22.9901897,0 L22.9901897,0 Z" id="Fill-1" stroke="#FFFFFF" stroke-width="1.5"></path>
                <path d="M21.1562241,21.1563793 L17.4762241,21.1563793 L17.4762241,15.3944828 C17.4762241,14.0198276 17.4510517,12.2525862 15.5627759,12.2525862 C13.6463966,12.2525862 13.3529483,13.7494828 13.3529483,15.295 L13.3529483,21.1563793 L9.67312069,21.1563793 L9.67312069,9.30793103 L13.2057069,9.30793103 L13.2057069,10.9267241 L13.2546724,10.9267241 C13.7460517,9.99534483 14.9472586,9.01310345 16.7388103,9.01310345 C20.4677759,9.01310345 21.1562241,11.467069 21.1562241,14.6572414 L21.1562241,21.1563793 Z" id="Path" fill="#FFFFFF"></path>
                <path d="M5.52312069,7.68827586 C4.34277586,7.68827586 3.38743103,6.7312069 3.38743103,5.55258621 C3.38743103,4.37482759 4.34277586,3.41810345 5.52312069,3.41810345 C6.70036207,3.41810345 7.65708621,4.37482759 7.65708621,5.55258621 C7.65708621,6.7312069 6.70036207,7.68827586 5.52312069,7.68827586 L5.52312069,7.68827586 Z" id="Path" fill="#FFFFFF"></path>
                <polygon id="Path" fill="#FFFFFF" points="3.68105172 21.1563793 7.36363793 21.1563793 7.36363793 9.30793103 3.68105172 9.30793103"></polygon>
            </g>
        </g>
    </g>
</svg>