<svg width="25" height="25" viewBox="0 0 25 25" fill="none" xmlns="http://www.w3.org/2000/svg">
<path d="M25 12.5C25 19.4 19.4 25 12.5 25C5.6 25 0 19.4 0 12.5C0 5.6 5.6 0 12.5 0C19.4 0 25 5.6 25 12.5Z" fill="#2968B2"/>
<path d="M6.52982 10.32H9.22982V19.01H6.52982V10.32ZM7.88982 6C8.74982 6 9.44982 6.7 9.44982 7.57C9.44982 8.43 8.74982 9.13 7.88982 9.13C7.01982 9.13 6.31982 8.43 6.31982 7.57C6.31982 6.7 7.01982 6 7.88982 6Z" fill="white"/>
<path d="M10.9297 10.32H13.5197V11.51H13.5597C13.9197 10.83 14.7997 10.11 16.1197 10.11C18.8597 10.11 19.3597 11.91 19.3597 14.25V19.02H16.6597V14.79C16.6597 13.78 16.6397 12.49 15.2597 12.49C13.8497 12.49 13.6397 13.59 13.6397 14.72V19.02H10.9397V10.32H10.9297Z" fill="white"/>
</svg>
